<svg width="18" height="21" viewBox="0 0 18 21" fill="none" xmlns="http://www.w3.org/2000/svg">
<path fill-rule="evenodd" clip-rule="evenodd" d="M14.974 0.774994C15.0037 0.903037 15.0078 1.03566 14.9861 1.16529C14.9645 1.29492 14.9175 1.41901 14.8478 1.53046C14.7781 1.64191 14.6872 1.73854 14.5802 1.81481C14.4731 1.89109 14.3521 1.94552 14.224 1.97499L12 2.48699V6.99999H16C16.5305 6.99999 17.0392 7.21071 17.4143 7.58578C17.7893 7.96085 18 8.46956 18 8.99999V16C18 16.5304 17.7893 17.0391 17.4143 17.4142C17.0392 17.7893 16.5305 18 16 18H3.00005C2.46961 18 1.96091 17.7893 1.58583 17.4142C1.21076 17.0391 1.00005 16.5304 1.00005 16V4.99999C0.754706 4.99962 0.518065 4.90906 0.335149 4.74555C0.152233 4.58205 0.0358071 4.35701 0.00802259 4.11324C-0.0197619 3.86948 0.0430343 3.62401 0.184463 3.42354C0.325892 3.22306 0.536084 3.08157 0.775046 3.02599L13.775 0.0259937C13.9031 -0.003639 14.0357 -0.00774087 14.1653 0.0139225C14.295 0.0355859 14.4191 0.0825896 14.5305 0.152246C14.642 0.221902 14.7386 0.312844 14.8149 0.419872C14.8911 0.5269 14.9456 0.647914 14.975 0.775994M16 8.99999H7.00005V16H9.00005V13C8.99989 12.4954 9.19045 12.0094 9.53354 11.6394C9.87663 11.2695 10.3469 11.0428 10.85 11.005L11 11H12C12.5046 10.9998 12.9906 11.1904 13.3606 11.5335C13.7306 11.8766 13.9572 12.3468 13.995 12.85L14 13V16H16V8.99999ZM12 13H11V16H12V13ZM5.00005 4.10299L3.00005 4.56499V16H5.00005V4.10299ZM10 2.94899L7.00005 3.64199V6.99999H10V2.94899Z" fill="white"/>
</svg>
